<?xml version="1.0" encoding="UTF-8"?>
<svg xmlns="http://www.w3.org/2000/svg" xmlns:xlink="http://www.w3.org/1999/xlink" width="315" height="315" viewBox="0 0 800 800" version="1.1">
    <title>No Image available</title>
    <g id="Artboard" stroke="none" stroke-width="1" fill="none" fill-rule="evenodd">
        <rect fill="#F3F4F6" x="0" y="0" width="800" height="800"/>
        <text id="No-Image-available-P" font-family="Roboto-Bold, Roboto" font-size="36" font-weight="bold" fill="#B8BECB">
            <tspan x="246.383789" y="522">No Image available</tspan>
            <tspan x="202.016602" y="564">Please contact the seller</tspan>
        </text>
        <g id="Group-7" transform="translate(299.000000, 226.000000)" fill="#B8BECB">
            <path d="M189.375,183.0625 C189.375,186.548973 186.548973,189.375 183.0625,189.375 L18.9375,189.375 C15.4510273,189.375 12.625,186.548973 12.625,183.0625 L12.625,18.9375 C12.625,15.4510273 15.4510273,12.625 18.9375,12.625 L183.0625,12.625 C186.548973,12.625 189.375,15.4510273 189.375,18.9375 L189.375,183.0625 Z M183.0625,0 L18.9375,0 C8.47847656,0 0,8.47847656 0,18.9375 L0,183.0625 C0,193.521523 8.47847656,202 18.9375,202 L183.0625,202 C193.521523,202 202,193.521523 202,183.0625 L202,18.9375 C202,8.47847656 193.521523,0 183.0625,0 L183.0625,0 Z" id="Fill-1"/>
            <path d="M137.527487,109.45988 C135.06208,107.001625 131.080929,107.001625 128.615522,109.45988 L114.078275,124.041404 L86.9631494,96.8436911 C84.4977429,94.3854363 80.5165914,94.3854363 78.051185,96.8436911 L33.8073898,141.222244 C31.3637102,143.7225 31.4028185,147.736381 33.8954823,150.187504 C35.0549068,151.327874 36.607785,151.97691 38.2317693,152 L164.642613,152 C168.133132,152.0201 170.979351,149.198496 171,145.696949 C171.009769,143.993526 170.335841,142.358255 169.130198,141.158846 L137.527487,109.45988 Z" id="Fill-3"/>
            <path d="M120,50 C130.493542,50 139,58.5064583 139,69 C139,79.4935417 130.493542,88 120,88 C109.506458,88 101,79.4935417 101,69 C101,58.5064583 109.506458,50 120,50" id="Fill-5"/>
        </g>
    </g>
</svg>
